<?xml version="1.0" encoding="UTF-8"?>
<svg id="Ebene_1" data-name="Ebene 1" xmlns="http://www.w3.org/2000/svg" xmlns:xlink="http://www.w3.org/1999/xlink" viewBox="0 0 199.99 189">
  <defs>
    <style>
      .cls-1 {
        fill: url(#Unbenannter_Verlauf_2);
      }
    </style>
    <linearGradient id="Unbenannter_Verlauf_2" data-name="Unbenannter Verlauf 2" x1="0" y1="94.5" x2="199.99" y2="94.5" gradientUnits="userSpaceOnUse">
      <stop offset="0" stop-color="aqua"/>
      <stop offset="1" stop-color="#f0f"/>
    </linearGradient>
  </defs>
  <path class="cls-1" d="M167.7,89.82c-1.64-9.74-3.14-20.43-4.43-32.21-14.18-129.63-16.89,0-16.89,0,0,0,2.19,14.99,3.26,29.89H48.79c0-2.19,.06-4.26,.2-6.11v-26.2c-12-40.69-12.08-40.52,3.62-40.52,18.62,0,.05-.21,53.6,0,53.54,.21,0-14.18,0-14.18H35.73c-48.16,.89-23.13,.81-6.5,87.18-54.31,1.22-20.49,8.46,2.21,12.35,1.58,9.51,3.04,19.92,4.29,31.35,14.18,129.63,16.89,0,16.89,0,0,0-2.1-14.33-3.19-28.89h100.77c-.02,1.82-.08,3.54-.2,5.11v26.2c12,40.69,12.08,40.52-3.62,40.52-18.62,0-.05,.21-53.6,0-53.54-.21,0,14.18,0,14.18h70.49c47.97-.89,23.32-.82,6.7-86.16,56.15-1.18,20.53-8.65-2.27-12.52Z"/>
</svg>